<?xml version="1.0" encoding="UTF-8" standalone="no"?>
<!-- Created with Inkscape (http://www.inkscape.org/) -->

<svg
   width="34"
   height="34"
   viewBox="0 0 34 34"
   version="1.1"
   id="svg1"
   xml:space="preserve"
   xmlns="http://www.w3.org/2000/svg"
   xmlns:svg="http://www.w3.org/2000/svg"><defs
     id="defs1" /><g
     id="layer22"
     style="display:inline"
     transform="translate(-6.9999998,-7.0000002)"><g
       id="g23"
       transform="matrix(2.4402556,0,0,2.4402555,-12.548042,-22.52449)"><path
         style="opacity:1;fill:#f4b400;fill-opacity:1;stroke:none;stroke-width:2.13543;stroke-linecap:round;stroke-linejoin:round;stroke-dasharray:none;stroke-dashoffset:0;stroke-opacity:1"
         d="m 14.948617,12.098934 c 0,0 2.400443,0.670331 2.362513,3.293201 -0.02462,1.702168 -2.362513,2.935245 -2.362513,2.935245 0,0 -2.478644,-1.055392 -2.362515,-3.150018 0.140416,-2.532671 2.362515,-3.078428 2.362515,-3.078428 z"
         id="path18" /><path
         style="fill:#f4b400;fill-opacity:1;stroke:none;stroke-width:2.13543;stroke-linecap:round;stroke-linejoin:round;stroke-dasharray:none;stroke-dashoffset:0;stroke-opacity:1"
         d="m 14.948617,19.803455 c 0,0 2.400443,0.670331 2.362513,3.293201 -0.02462,1.702168 -2.362513,2.935245 -2.362513,2.935245 0,0 -2.478644,-1.055392 -2.362515,-3.150018 0.140416,-2.532671 2.362515,-3.078428 2.362515,-3.078428 z"
         id="path18-4" /><path
         style="fill:#f4b400;fill-opacity:1;stroke:none;stroke-width:2.13543;stroke-linecap:round;stroke-linejoin:round;stroke-dasharray:none;stroke-dashoffset:0;stroke-opacity:1"
         d="m 21.94362,19.167064 c 0,0 -0.670331,2.400443 -3.293201,2.362513 -1.702168,-0.02462 -2.935245,-2.362513 -2.935245,-2.362513 0,0 1.055392,-2.478644 3.150018,-2.362515 2.532671,0.140416 3.078428,2.362515 3.078428,2.362515 z"
         id="path18-8" /><path
         style="fill:#f4b400;fill-opacity:1;stroke:none;stroke-width:2.13543;stroke-linecap:round;stroke-linejoin:round;stroke-dasharray:none;stroke-dashoffset:0;stroke-opacity:1"
         d="m 14.239099,19.167064 c 0,0 -0.670331,2.400443 -3.293201,2.362513 -1.7021676,-0.02462 -2.9352446,-2.362513 -2.9352446,-2.362513 0,0 1.055392,-2.478644 3.1500176,-2.362515 2.532671,0.140416 3.078428,2.362515 3.078428,2.362515 z"
         id="path18-4-4" /></g></g></svg>
